<svg xmlns="http://www.w3.org/2000/svg" viewBox="0 0 730.37 306.01"><defs><style>.cls-1{fill:#432414;}.cls-2{fill:#432413;}.cls-3{fill:#8dc641;}.cls-4{font-size:107.73px;fill:#8ec641;font-family:Bungee-Regular, Bungee;}</style></defs><title>Asset 2</title><g id="Layer_2" data-name="Layer 2"><g id="Layer_1-2" data-name="Layer 1"><path class="cls-1" d="M130.84,183.28l.17,20h-26V104.52h26q21.94,38.6,43.9,77.2V124.84l-8.54-.34-.17-20h26.47v98.72H166.54l-43.67-75.79-.74,55.49Z"/><path class="cls-2" d="M74.82,72.24H222.9v34l-19.21-.08L203.26,92l-45.42-.52v46.86L141,109.15q.11-8.85.22-17.7l-46.63.26v14.42H74.82Z"/><polygon class="cls-2" points="140.28 171.9 157.83 200.85 157.83 215.84 166.41 215.84 166.41 236.21 131.31 236.21 131.31 215.84 140.28 215.71 140.28 171.9"/><path class="cls-3" d="M75.18,71.25s-44.84-.91-52.67-59c0,0,60.32-5.25,56.86,53.79,0,0-23.58-18.19-30.21-29.79C49.16,36.29,61.94,63.84,75.18,71.25Z"/><path class="cls-3" d="M69.33,81.81S47.63,115.34,0,94.07c0,0,24.29-48.14,67.38-17.85,0,0-24.83,9.33-36.72,8.91C30.66,85.13,57.51,88.37,69.33,81.81Z"/><path class="cls-3" d="M72.09,95.47s5.16,25.33-26.5,37.07c0,0-10.58-33.25,23.06-38.77,0,0-7.25,15.56-12.94,20.75C55.71,114.52,69.59,103.85,72.09,95.47Z"/><path class="cls-3" d="M106.4,65.07s4.53-17.59,28.14-15.26c0,0-3.55,24.26-26.49,17.4,0,0,9.36-7.6,14.55-9.13C122.6,58.08,110.55,60.54,106.4,65.07Z"/><path class="cls-3" d="M86.59,67.44S64.83,34.65,102.79,0c0,0,33.93,40.87-10.39,67.88,0,0,1.35-26.09,6.4-36.67C98.8,31.21,85.31,54.2,86.59,67.44Z"/><text class="cls-4" transform="translate(200.24 207.33)">TN<tspan class="cls-1" x="151.79" y="0">Green</tspan></text></g></g></svg>