<svg xmlns="http://www.w3.org/2000/svg" viewBox="0 0 722.94 236.21"><defs><style>.cls-1{fill:#432414;}.cls-2{fill:#432413;}.cls-3{fill:#8dc641;}.cls-4{fill:#8ec641;}</style></defs><title>logo</title><g id="Layer_2" data-name="Layer 2"><g id="Layer_1-2" data-name="Layer 1"><path class="cls-1" d="M130.84,183.28l.17,20h-26V104.52h26q21.94,38.6,43.9,77.2V124.84l-8.54-.34-.17-20h26.47v98.72H166.54l-43.67-75.79-.74,55.49Z"/><path class="cls-2" d="M74.82,72.24H222.9v34l-19.21-.08L203.26,92l-45.42-.52v46.86L141,109.15q.11-8.85.22-17.7l-46.63.26v14.42H74.82Z"/><polygon class="cls-2" points="140.28 171.9 157.83 200.85 157.83 215.84 166.41 215.84 166.41 236.21 131.31 236.21 131.31 215.84 140.28 215.71 140.28 171.9"/><path class="cls-3" d="M75.18,71.25s-44.84-.91-52.67-59c0,0,60.32-5.25,56.86,53.79,0,0-23.58-18.19-30.21-29.79C49.16,36.29,61.94,63.84,75.18,71.25Z"/><path class="cls-3" d="M69.33,81.81S47.63,115.34,0,94.07c0,0,24.29-48.14,67.38-17.85,0,0-24.83,9.33-36.72,8.91C30.66,85.13,57.51,88.37,69.33,81.81Z"/><path class="cls-3" d="M72.09,95.47s5.16,25.33-26.5,37.07c0,0-10.58-33.25,23.06-38.77,0,0-7.25,15.56-12.94,20.75C55.71,114.52,69.59,103.85,72.09,95.47Z"/><path class="cls-3" d="M106.4,65.07s4.53-17.59,28.14-15.26c0,0-3.55,24.26-26.49,17.4,0,0,9.36-7.6,14.55-9.13C122.6,58.08,110.55,60.54,106.4,65.07Z"/><path class="cls-3" d="M86.59,67.44S64.83,34.65,102.79,0c0,0,33.93,40.87-10.39,67.88,0,0,1.35-26.09,6.4-36.67C98.8,31.21,85.31,54.2,86.59,67.44Z"/><path class="cls-4" d="M244.3,207.33H226.85a3.32,3.32,0,0,1-3.88-3.88v-52.9H207.13a3.32,3.32,0,0,1-3.88-3.87v-13a3.33,3.33,0,0,1,3.88-3.88H264a3.32,3.32,0,0,1,3.88,3.88v13a3.31,3.31,0,0,1-3.88,3.87H248.18v52.9a3.33,3.33,0,0,1-3.88,3.88Z"/><path class="cls-4" d="M298.38,207.33H282.22a3.33,3.33,0,0,1-3.88-3.88V133.64a3.33,3.33,0,0,1,3.88-3.88h11.2a8.63,8.63,0,0,1,3.51.65,8.5,8.5,0,0,1,2.85,2.26l20.9,23.92v-23a3.32,3.32,0,0,1,3.88-3.88h16.16a3.32,3.32,0,0,1,3.87,3.88v69.81a3.32,3.32,0,0,1-3.87,3.88H324.56a3.32,3.32,0,0,1-3.88-3.88V190.2l-18.42-22.3v35.55a3.33,3.33,0,0,1-3.88,3.88Z"/><path class="cls-1" d="M418.71,207.33H384.78q-13.47,0-20-5.39t-6.51-16.59V151.74q0-11.2,6.51-16.59t20-5.39h26.93a3.33,3.33,0,0,1,3.88,3.88v13a3.32,3.32,0,0,1-3.88,3.87H389.3a7.6,7.6,0,0,0-4.95,1.35,5,5,0,0,0-1.62,4v25.75a5.54,5.54,0,0,0,1.24,4,4.88,4.88,0,0,0,3.72,1.3h10.45V170.16a3.32,3.32,0,0,1,3.88-3.88h16.69a3.32,3.32,0,0,1,3.88,3.88v33.29a3.32,3.32,0,0,1-3.88,3.88Z"/><path class="cls-1" d="M456.2,207.33H439.61a3.33,3.33,0,0,1-3.88-3.88V133.64a3.33,3.33,0,0,1,3.88-3.88h35.88q12.06,0,16.64,5t4.58,13v5a19.65,19.65,0,0,1-1.35,7.7,8.39,8.39,0,0,1-4.68,4.58,14.16,14.16,0,0,1,9.42,4.74q3.61,4.1,3.61,10.88v22.84a3.32,3.32,0,0,1-3.88,3.88H483.14a3.32,3.32,0,0,1-3.88-3.88V187a5.51,5.51,0,0,0-.92-3.5,3.86,3.86,0,0,0-3.18-1.13H460.08v21.11a4.05,4.05,0,0,1-.91,3A4.09,4.09,0,0,1,456.2,207.33Zm3.88-58.18v13.79h8.08c1.87,0,3.12-.48,3.77-1.45a6.33,6.33,0,0,0,1-3.61v-3.66a6.33,6.33,0,0,0-1-3.61c-.65-1-1.9-1.46-3.77-1.46Z"/><path class="cls-1" d="M569.64,207.33h-50a3.32,3.32,0,0,1-3.88-3.88V133.64a3.32,3.32,0,0,1,3.88-3.88h50a3.32,3.32,0,0,1,3.88,3.88v12.61a3.31,3.31,0,0,1-3.88,3.87H539.91v8.3h21a3.32,3.32,0,0,1,3.88,3.88v11.52a3.32,3.32,0,0,1-3.88,3.88h-21V187h29.73a3.31,3.31,0,0,1,3.88,3.88v12.6a4.05,4.05,0,0,1-.91,3A4.09,4.09,0,0,1,569.64,207.33Z"/><path class="cls-1" d="M640.1,207.33h-50a3.33,3.33,0,0,1-3.88-3.88V133.64a3.33,3.33,0,0,1,3.88-3.88h50a3.33,3.33,0,0,1,3.88,3.88v12.61a3.32,3.32,0,0,1-3.88,3.87H610.36v8.3h21a3.32,3.32,0,0,1,3.88,3.88v11.52a3.32,3.32,0,0,1-3.88,3.88h-21V187H640.1a3.32,3.32,0,0,1,3.88,3.88v12.6a3.33,3.33,0,0,1-3.88,3.88Z"/><path class="cls-1" d="M676.73,207.33H660.57a3.32,3.32,0,0,1-3.88-3.88V133.64a3.32,3.32,0,0,1,3.88-3.88h11.2a8.61,8.61,0,0,1,3.5.65,8.43,8.43,0,0,1,2.86,2.26L699,156.59v-23a3.32,3.32,0,0,1,3.87-3.88h16.16a3.32,3.32,0,0,1,3.88,3.88v69.81a3.32,3.32,0,0,1-3.88,3.88H702.9a3.32,3.32,0,0,1-3.87-3.88V190.2L680.6,167.9v35.55a3.32,3.32,0,0,1-3.87,3.88Z"/></g></g></svg>